<svg xmlns="http://www.w3.org/2000/svg" xmlns:xlink="http://www.w3.org/1999/xlink" viewBox="0 0 288.54 96.18"><defs><style>.cls-1{isolation:isolate;}.cls-2{fill:#2d4248;}.cls-3{fill:url(#linear-gradient);}.cls-4,.cls-6{opacity:0.2;mix-blend-mode:multiply;}.cls-4{fill:url(#linear-gradient-2);}.cls-5{fill:url(#linear-gradient-3);}.cls-6{fill:url(#linear-gradient-4);}.cls-7{font-size:24px;fill:#ec6744;font-family:OpenSans-Bold, Open Sans;font-weight:700;}</style><linearGradient id="linear-gradient" x1="38.37" y1="1.91" x2="38.37" y2="47.94" gradientUnits="userSpaceOnUse"><stop offset="0" stop-color="#f8aa60"/><stop offset="1" stop-color="#ec6744"/></linearGradient><linearGradient id="linear-gradient-2" x1="43.08" y1="22.34" x2="43.08" y2="46.82" xlink:href="#linear-gradient"/><linearGradient id="linear-gradient-3" x1="42.78" y1="23.47" x2="42.78" y2="70.81" gradientUnits="userSpaceOnUse"><stop offset="0" stop-color="#5dcdc9"/><stop offset="1" stop-color="#3d99a4"/></linearGradient><linearGradient id="linear-gradient-4" x1="63.35" y1="23.52" x2="63.35" y2="51.12" xlink:href="#linear-gradient-3"/></defs><g class="cls-1"><g id="Layer_1" data-name="Layer 1"><path class="cls-2" d="M122.19,51.56a9.23,9.23,0,0,1-3.84,3.5,13.32,13.32,0,0,1-6.19,1.32,16.13,16.13,0,0,1-6.43-1.22,10.9,10.9,0,0,1-4.54-3.53,10.16,10.16,0,0,1-1.94-5.37h7.2a5.55,5.55,0,0,0,1.65,3.43,5.19,5.19,0,0,0,3.77,1.36,4.38,4.38,0,0,0,3.24-1.12A3.94,3.94,0,0,0,116.24,47a3.84,3.84,0,0,0-.91-2.61A6.71,6.71,0,0,0,113,42.75q-1.39-.61-3.84-1.44A37,37,0,0,1,104,39.22a9.35,9.35,0,0,1-3.43-3,8.53,8.53,0,0,1-1.42-5.13,8.37,8.37,0,0,1,3.14-6.89,13,13,0,0,1,8.33-2.52q5.37,0,8.57,2.59a9.74,9.74,0,0,1,3.62,6.91h-7.29a5.12,5.12,0,0,0-1.54-3A4.79,4.79,0,0,0,110.57,27a4.48,4.48,0,0,0-3,1,3.55,3.55,0,0,0-1.15,2.86,3.52,3.52,0,0,0,.89,2.47,6.75,6.75,0,0,0,2.25,1.61,37.72,37.72,0,0,0,3.72,1.39,51,51,0,0,1,5.31,2.16,9.35,9.35,0,0,1,3.48,3,8.91,8.91,0,0,1,1.44,5.28A9.25,9.25,0,0,1,122.19,51.56Z"/><path class="cls-2" d="M128.86,19.16a5,5,0,0,1,6,0,3.41,3.41,0,0,1,1.15,2.66,3.36,3.36,0,0,1-1.15,2.62,5,5,0,0,1-6,0,3.36,3.36,0,0,1-1.15-2.62A3.41,3.41,0,0,1,128.86,19.16Zm6.38,10.29v26.6h-6.76V29.45Z"/><path class="cls-2" d="M179.45,29.45l-7.15,26.6h-7.49L159.1,36.7l-5.86,19.35h-7.48l-7.11-26.6h6.77L149.74,50l5.91-20.55h7.15L168.75,50l4.37-20.55Z"/><path class="cls-2" d="M199,30.7A8.7,8.7,0,0,1,202.4,35V29.45h6.72v26.6H202.4V50.48A8.79,8.79,0,0,1,199,54.77a10,10,0,0,1-5.76,1.61,11.41,11.41,0,0,1-6-1.63A11,11,0,0,1,183,50a16.33,16.33,0,0,1-1.51-7.27A16.36,16.36,0,0,1,183,35.48a11,11,0,0,1,4.2-4.73,11.41,11.41,0,0,1,6-1.63A10.27,10.27,0,0,1,199,30.7Zm-8.74,6.39a8,8,0,0,0-1.92,5.66,7.9,7.9,0,0,0,1.92,5.64,7.27,7.27,0,0,0,10.15,0,7.75,7.75,0,0,0,2-5.59,7.82,7.82,0,0,0-2-5.64,7.23,7.23,0,0,0-10.15,0Z"/><path class="cls-2" d="M222,20.53V56.05h-6.77V20.53Z"/><path class="cls-2" d="M244.35,30.7A8.7,8.7,0,0,1,247.76,35V29.45h6.72v26.6h-6.72V50.48a8.79,8.79,0,0,1-3.41,4.29,10,10,0,0,1-5.76,1.61,11.41,11.41,0,0,1-6.05-1.63,11,11,0,0,1-4.2-4.73,16.33,16.33,0,0,1-1.51-7.27,16.36,16.36,0,0,1,1.51-7.27,11,11,0,0,1,4.2-4.73,11.41,11.41,0,0,1,6.05-1.63A10.27,10.27,0,0,1,244.35,30.7Zm-8.74,6.39a8,8,0,0,0-1.92,5.66,7.9,7.9,0,0,0,1.92,5.64,7.27,7.27,0,0,0,10.15,0,7.75,7.75,0,0,0,2-5.59,7.82,7.82,0,0,0-2-5.64,7.23,7.23,0,0,0-10.15,0Z"/><path class="cls-2" d="M283.8,32.09q2.74,3,2.74,8.5V56.05h-6.72V41.36a6.94,6.94,0,0,0-1.63-4.92,5.81,5.81,0,0,0-4.47-1.75,5.94,5.94,0,0,0-4.6,1.87,7.61,7.61,0,0,0-1.73,5.37V56.05h-6.77V29.45h6.77v5.33a8.45,8.45,0,0,1,3.48-4.2,10.31,10.31,0,0,1,5.59-1.51A9.42,9.42,0,0,1,283.8,32.09Z"/><path class="cls-3" d="M8.42,50.91A14,14,0,0,1,3.87,32.14L16.08,11A18,18,0,0,1,31.67,2H66.72a8,8,0,0,1,6.93,12L56.83,43.12a10,10,0,0,1-13.67,3.65,5,5,0,0,1-1.83-6.83l1.94-3.37A9,9,0,0,0,40,24.27h0a14,14,0,0,0-19.12,5.12Z"/><path class="cls-4" d="M50.68,47.79a10,10,0,0,1-7.52-1,5,5,0,0,1-1.83-6.83l1.94-3.37A9,9,0,0,0,40,24.27h0a14,14,0,0,0-4.48-1.65A14,14,0,0,1,45,24.27h0a9,9,0,0,1,3.31,12.3l-1.94,3.37a5,5,0,0,0,1.83,6.83A9.88,9.88,0,0,0,50.68,47.79Z"/><path class="cls-5" d="M72.73,23.6a14,14,0,0,1,4.55,18.77L65.07,63.51a18,18,0,0,1-15.59,9h-35a8,8,0,0,1-6.93-12L24.32,31.39A10,10,0,0,1,38,27.74a5,5,0,0,1,1.83,6.83l-1.94,3.37a9,9,0,0,0,3.31,12.3h0a14,14,0,0,0,19.12-5.12Z"/><path class="cls-6" d="M50.67,51.89a14,14,0,0,0,9.64-6.77L72.73,23.6a14,14,0,0,1,3.3,3L65.31,45.12A14,14,0,0,1,50.67,51.89Z"/><text class="cls-7" transform="translate(226.89 87.15)">DOK.</text></g></g></svg>