<svg xmlns="http://www.w3.org/2000/svg" xmlns:xlink="http://www.w3.org/1999/xlink" viewBox="0 0 191.39 170.56"><defs><style>.cls-1{isolation:isolate;}.cls-2{fill:url(#linear-gradient);}.cls-3,.cls-5{opacity:0.2;mix-blend-mode:multiply;}.cls-3{fill:url(#linear-gradient-2);}.cls-4{fill:url(#linear-gradient-3);}.cls-5{fill:url(#linear-gradient-4);}.cls-6{fill:#2d4248;}.cls-7{font-size:24px;fill:#ec6744;font-family:OpenSans-Bold, Open Sans;font-weight:700;}</style><linearGradient id="linear-gradient" x1="93.49" y1="1.91" x2="93.49" y2="47.94" gradientUnits="userSpaceOnUse"><stop offset="0" stop-color="#f8aa60"/><stop offset="1" stop-color="#ec6744"/></linearGradient><linearGradient id="linear-gradient-2" x1="98.2" y1="22.34" x2="98.2" y2="46.82" xlink:href="#linear-gradient"/><linearGradient id="linear-gradient-3" x1="97.9" y1="23.47" x2="97.9" y2="70.81" gradientUnits="userSpaceOnUse"><stop offset="0" stop-color="#5dcdc9"/><stop offset="1" stop-color="#3d99a4"/></linearGradient><linearGradient id="linear-gradient-4" x1="118.47" y1="23.52" x2="118.47" y2="51.12" xlink:href="#linear-gradient-3"/></defs><g class="cls-1"><g id="Layer_1" data-name="Layer 1"><path class="cls-2" d="M63.54,50.91A14,14,0,0,1,59,32.14L71.2,11A18,18,0,0,1,86.79,2h35.05a8,8,0,0,1,6.93,12L112,43.12a10,10,0,0,1-13.67,3.65,5,5,0,0,1-1.83-6.83l1.94-3.37a9,9,0,0,0-3.31-12.3h0A14,14,0,0,0,76,29.39Z"/><path class="cls-3" d="M105.8,47.79a10,10,0,0,1-7.52-1,5,5,0,0,1-1.83-6.83l1.94-3.37a9,9,0,0,0-3.31-12.3h0a14,14,0,0,0-4.48-1.65,14,14,0,0,1,9.48,1.65h0a9,9,0,0,1,3.31,12.3l-1.94,3.37a5,5,0,0,0,1.83,6.83A9.88,9.88,0,0,0,105.8,47.79Z"/><path class="cls-4" d="M127.85,23.6a14,14,0,0,1,4.55,18.77L120.19,63.51a18,18,0,0,1-15.59,9h-35a8,8,0,0,1-6.93-12L79.44,31.39a10,10,0,0,1,13.67-3.65,5,5,0,0,1,1.83,6.83L93,37.94a9,9,0,0,0,3.31,12.3h0a14,14,0,0,0,19.12-5.12Z"/><path class="cls-5" d="M105.79,51.89a14,14,0,0,0,9.64-6.77L127.85,23.6a14,14,0,0,1,3.3,3L120.43,45.12A14,14,0,0,1,105.79,51.89Z"/><path class="cls-6" d="M25,125.94a9.25,9.25,0,0,1-3.84,3.51A13.32,13.32,0,0,1,15,130.77a16,16,0,0,1-6.43-1.23A10.83,10.83,0,0,1,4,126a10.1,10.1,0,0,1-1.94-5.37H9.3A5.52,5.52,0,0,0,11,124.07a5.21,5.21,0,0,0,3.77,1.37A4.39,4.39,0,0,0,18,124.31a3.93,3.93,0,0,0,1.13-2.9,3.85,3.85,0,0,0-.91-2.62,6.71,6.71,0,0,0-2.31-1.66q-1.39-.61-3.84-1.44a38.39,38.39,0,0,1-5.18-2.08,9.53,9.53,0,0,1-3.43-3A8.59,8.59,0,0,1,2,105.47a8.37,8.37,0,0,1,3.14-6.89,13,13,0,0,1,8.33-2.52A13.23,13.23,0,0,1,22,98.65a9.76,9.76,0,0,1,3.62,6.92H18.37a5.06,5.06,0,0,0-1.54-3,4.75,4.75,0,0,0-3.41-1.18,4.53,4.53,0,0,0-3,1,3.55,3.55,0,0,0-1.15,2.86,3.5,3.5,0,0,0,.89,2.47,6.62,6.62,0,0,0,2.25,1.61,35.32,35.32,0,0,0,3.72,1.39,50.12,50.12,0,0,1,5.31,2.16,9.29,9.29,0,0,1,3.48,3,8.87,8.87,0,0,1,1.44,5.28A9.21,9.21,0,0,1,25,125.94Z"/><path class="cls-6" d="M31.71,93.54a4.37,4.37,0,0,1,3-1,4.36,4.36,0,0,1,3,1,3.42,3.42,0,0,1,1.15,2.67,3.35,3.35,0,0,1-1.15,2.61,4.36,4.36,0,0,1-3,1,4.37,4.37,0,0,1-3-1,3.35,3.35,0,0,1-1.15-2.61A3.42,3.42,0,0,1,31.71,93.54Zm6.39,10.3v26.59H31.33V103.84Z"/><path class="cls-6" d="M82.3,103.84l-7.15,26.59H67.66L62,111.09,56.1,130.43H48.61L41.5,103.84h6.77l4.32,20.54,5.91-20.54h7.15l5.95,20.54L76,103.84Z"/><path class="cls-6" d="M101.84,105.09a8.6,8.6,0,0,1,3.41,4.27v-5.52H112v26.59h-6.72v-5.57a8.76,8.76,0,0,1-3.41,4.3,10.12,10.12,0,0,1-5.76,1.61,11.41,11.41,0,0,1-6-1.64,11,11,0,0,1-4.2-4.72,18.28,18.28,0,0,1,0-14.55,11.09,11.09,0,0,1,4.2-4.73,11.5,11.5,0,0,1,6-1.63A10.19,10.19,0,0,1,101.84,105.09Zm-8.74,6.38a8,8,0,0,0-1.92,5.66,7.9,7.9,0,0,0,1.92,5.64,7.28,7.28,0,0,0,10.15,0,8.9,8.9,0,0,0,0-11.24,7.26,7.26,0,0,0-10.15,0Z"/><path class="cls-6" d="M124.88,94.91v35.52h-6.77V94.91Z"/><path class="cls-6" d="M147.2,105.09a8.6,8.6,0,0,1,3.41,4.27v-5.52h6.72v26.59h-6.72v-5.57a8.76,8.76,0,0,1-3.41,4.3,10.12,10.12,0,0,1-5.76,1.61,11.41,11.41,0,0,1-6.05-1.64,11,11,0,0,1-4.2-4.72,18.28,18.28,0,0,1,0-14.55,11.09,11.09,0,0,1,4.2-4.73,11.5,11.5,0,0,1,6.05-1.63A10.19,10.19,0,0,1,147.2,105.09Zm-8.74,6.38a8,8,0,0,0-1.92,5.66,7.9,7.9,0,0,0,1.92,5.64,7.29,7.29,0,0,0,10.16,0,8.93,8.93,0,0,0,0-11.24,6.71,6.71,0,0,0-5.07-2.08A6.61,6.61,0,0,0,138.46,111.47Z"/><path class="cls-6" d="M186.65,106.48c1.83,2,2.74,4.85,2.74,8.49v15.46h-6.72V115.74a6.94,6.94,0,0,0-1.63-4.92,5.81,5.81,0,0,0-4.47-1.75,5.94,5.94,0,0,0-4.6,1.87,7.62,7.62,0,0,0-1.73,5.38v14.11h-6.77V103.84h6.77v5.33a8.36,8.36,0,0,1,3.48-4.2,10.32,10.32,0,0,1,5.59-1.52A9.4,9.4,0,0,1,186.65,106.48Z"/><text class="cls-7" transform="translate(129.74 161.53)">DOK.</text></g></g></svg>